<?xml version="1.0" encoding="utf-8"?>
<!-- Generator: Adobe Illustrator 23.0.0, SVG Export Plug-In . SVG Version: 6.00 Build 0)  -->
<svg version="1.1" id="Layer_1" xmlns="http://www.w3.org/2000/svg" xmlns:xlink="http://www.w3.org/1999/xlink" x="0px" y="0px"
	 viewBox="0 0 100 100" style="enable-background:new 0 0 100 100;" xml:space="preserve">
<g>
	<g>
		<path d="M1.06,2.66c0.24,31.41,0.48,62.81,0.73,94.22c0.01,1.93,3.01,1.93,3,0C4.55,65.47,4.31,34.06,4.06,2.66
			C4.05,0.73,1.05,0.72,1.06,2.66L1.06,2.66z"/>
	</g>
</g>
<g>
	<g>
		<path d="M3.43,99.17c31.49,0.21,62.98,0.1,94.46-0.34c1.93-0.03,1.93-3.03,0-3c-31.49,0.44-62.97,0.55-94.46,0.34
			C1.5,96.16,1.49,99.16,3.43,99.17L3.43,99.17z"/>
	</g>
</g>
<g>
	<g>
		<path d="M99.39,96.99c-1.98-7.94-0.99-15.87-0.57-23.92c0.4-7.73,0.12-15.51,0.05-23.24c-0.15-15.97-0.29-31.95-0.44-47.92
			c-0.02-1.93-3.02-1.93-3,0c0.15,16.64,0.3,33.28,0.46,49.92c0.07,7.71,0.29,15.43-0.18,23.13c-0.47,7.71-1.1,15.25,0.79,22.83
			C96.96,99.66,99.86,98.86,99.39,96.99L99.39,96.99z"/>
	</g>
</g>
<g>
	<g>
		<path d="M2.66,3.4c31.32,0.62,62.63,1.21,93.95,0.47c1.93-0.05,1.93-3.05,0-3C65.29,1.61,33.99,1.02,2.66,0.4
			C0.73,0.36,0.73,3.36,2.66,3.4L2.66,3.4z"/>
	</g>
</g>
<g>
	<g>
		<path d="M12.8,29.99c1.52,13.5-1.46,26.87-1.53,40.37c-0.01,1.93,2.99,1.93,3,0c0.07-13.5,3.05-26.87,1.53-40.37
			C15.58,28.09,12.58,28.07,12.8,29.99L12.8,29.99z"/>
	</g>
</g>
<g>
	<g>
		<path d="M15.41,30.79c3.15-0.16,6.3-0.33,8.66,2.02c2.04,2.04,2.71,5.43,2.88,8.26c0.49,7.88-5.76,9.29-12.28,9.28
			c0.13,0.98,0.27,1.96,0.4,2.95c6.01-0.94,15.17-1.07,14.96,7.65c-0.09,3.77-2.94,7.78-6.73,8.68c-3.27,0.77-6.45-0.96-9.19-2.41
			c-1.7-0.91-3.22,1.68-1.51,2.59c4.07,2.16,8.63,4.13,13.17,2.13c3.74-1.65,6.52-5.48,7.12-9.5c0.6-4-0.99-8.16-4.3-10.55
			c-4.14-2.98-9.61-2.21-14.31-1.47c-1.7,0.27-1.25,2.95,0.4,2.95c8.25,0.01,15.94-2.63,15.28-12.28
			c-0.23-3.35-0.94-7.35-3.14-10.02c-2.81-3.4-7.36-3.47-11.4-3.27C13.49,27.89,13.48,30.89,15.41,30.79L15.41,30.79z"/>
	</g>
</g>
<g>
	<g>
		<path d="M39.66,54.5c2.78,0.17,5.45,0.61,6.72,3.4c0.9,1.98,0.87,5.02,0.74,7.18c-0.11,1.67-1.65,5.51-3.83,5.65
			c-0.74-0.63-1.49-1.26-2.23-1.9c0.78-0.04,1.56-0.07,2.34-0.08c1.3-0.03,2.6-0.01,3.9,0.02c1.93,0.04,1.93-2.96,0-3
			c-3.66-0.08-11.1-1.18-9.81,4.76c1.03,4.76,5.55,4.17,8.65,1.84c4.33-3.25,4.5-7.96,3.68-13.06c-0.92-5.77-4.71-7.49-10.15-7.81
			C37.74,51.38,37.74,54.38,39.66,54.5L39.66,54.5z"/>
	</g>
</g>
<g>
	<g>
		<path d="M67.44,59.37c-3.69-6.75-12.02-0.72-14.07,4.18c-3.24,7.75,13.12,8.49,17.06,7.33c1.85-0.54,1.06-3.44-0.8-2.89
			c-2.56,0.75-4.95,0.54-7.53,0.03c-1.35-0.27-4.63-0.59-5.48-1.85c-1.98-2.96,5.79-9.72,8.22-5.28
			C65.77,62.58,68.36,61.07,67.44,59.37L67.44,59.37z"/>
	</g>
</g>
<g>
	<g>
		<path d="M75.21,37.64c-1.24,11.2-0.66,22.34,1.68,33.35c0.4,1.89,3.29,1.09,2.89-0.8C77.5,59.44,77,48.57,78.21,37.64
			C78.42,35.73,75.42,35.74,75.21,37.64L75.21,37.64z"/>
	</g>
</g>
<g>
	<g>
		<path d="M81.79,48.15C79.63,51,76.04,55.7,75.9,59.48c-0.04,1.12,0.44,1.79,1.22,2.54c1.87,1.8,4.25,3.27,6.3,4.86
			c1.53,1.18,3.02-1.43,1.51-2.59c-1.32-1.02-2.75-1.98-4-3.08c-1.73-1.52-2.05-1.75-1.13-3.88c1.2-2.75,2.76-5.27,4.57-7.65
			C85.55,48.12,82.94,46.63,81.79,48.15L81.79,48.15z"/>
	</g>
</g>
</svg>
