<?xml version="1.0" encoding="utf-8"?>
<!-- Generator: Adobe Illustrator 23.0.0, SVG Export Plug-In . SVG Version: 6.00 Build 0)  -->
<svg version="1.1" id="Layer_1" xmlns="http://www.w3.org/2000/svg" xmlns:xlink="http://www.w3.org/1999/xlink" x="0px" y="0px"
	 viewBox="0 0 100 100" style="enable-background:new 0 0 100 100;" xml:space="preserve">
<g>
	<g>
		<path d="M1.06,2.66c0.24,31.41,0.48,62.81,0.73,94.22c0.01,1.93,3.01,1.93,3,0C4.55,65.47,4.31,34.06,4.06,2.66
			C4.05,0.73,1.05,0.72,1.06,2.66L1.06,2.66z"/>
	</g>
</g>
<g>
	<g>
		<path d="M3.43,99.17c31.49,0.21,62.98,0.1,94.46-0.34c1.93-0.03,1.93-3.03,0-3c-31.49,0.44-62.97,0.55-94.46,0.34
			C1.5,96.16,1.49,99.16,3.43,99.17L3.43,99.17z"/>
	</g>
</g>
<g>
	<g>
		<path d="M99.39,96.99c-1.98-7.94-0.99-15.87-0.57-23.92c0.4-7.73,0.12-15.51,0.05-23.24c-0.15-15.97-0.29-31.95-0.44-47.92
			c-0.02-1.93-3.02-1.93-3,0c0.15,16.64,0.3,33.28,0.46,49.92c0.07,7.71,0.29,15.43-0.18,23.13c-0.47,7.71-1.1,15.25,0.79,22.83
			C96.96,99.66,99.86,98.86,99.39,96.99L99.39,96.99z"/>
	</g>
</g>
<g>
	<g>
		<path d="M2.66,3.4c31.32,0.62,62.63,1.21,93.95,0.47c1.93-0.05,1.93-3.05,0-3C65.29,1.61,33.99,1.02,2.66,0.4
			C0.73,0.36,0.73,3.36,2.66,3.4L2.66,3.4z"/>
	</g>
</g>
<g>
	<g>
		<path d="M13.9,33.3c0.34,6.58,0.04,13.13-1.19,19.62c-0.97,5.15-2.61,10.05-2.28,15.35c0.12,1.92,3.12,1.93,3,0
			c-0.39-6.21,1.93-12.23,2.79-18.33c0.78-5.53,0.96-11.06,0.67-16.64C16.8,31.38,13.8,31.37,13.9,33.3L13.9,33.3z"/>
	</g>
</g>
<g>
	<g>
		<path d="M17.52,37.17c3.65-4.43,7.3,4.76,7.32,6.78c0.07,6.83-4.92,6.24-9.1,5.96c-1.58-0.1-1.9,2.03-0.76,2.8
			c3.76,2.5,7.67,5.64,7.65,10.65c-0.02,2.94-1.35,3.99-3.99,4.79c-0.83,0.25-5.06,0.66-5.24-0.26c-0.38-1.89-3.27-1.09-2.89,0.8
			c0.59,2.96,3.74,2.72,6.16,2.59c2.8-0.15,6.42-0.1,8.16-2.73c1.77-2.68,0.86-7.41-0.29-10.17c-1.57-3.76-4.77-6.06-8.05-8.25
			c-0.25,0.93-0.5,1.86-0.76,2.8c7.35,0.48,13.84-2.16,11.81-10.53c-1.18-4.88-6.85-13.77-12.14-7.34
			C14.18,36.53,16.29,38.66,17.52,37.17L17.52,37.17z"/>
	</g>
</g>
<g>
	<g>
		<path d="M34.08,58.18c-4.17-1.18-7.43,0.76-7.47,5.21c-0.03,3.98,2.28,7.98,6.26,9.12c3.79,1.08,6.48-1.11,7.14-4.8
			c0.65-3.6,0.18-8.62-4.25-9.35c-1.89-0.31-2.7,2.58-0.8,2.89c3.76,0.62,3.11,9.67-1.3,8.37c-1.84-0.54-3.19-2.12-3.74-3.92
			c-0.83-2.74-0.13-5.6,3.36-4.62C35.15,61.6,35.94,58.71,34.08,58.18L34.08,58.18z"/>
	</g>
</g>
<g>
	<g>
		<path d="M41.25,51.13c2.04,0.26,4.09,0.51,6.13,0.77c1.91,0.24,1.89-2.76,0-3c-2.04-0.26-4.09-0.51-6.13-0.77
			C39.34,47.89,39.36,50.89,41.25,51.13L41.25,51.13z"/>
	</g>
</g>
<g>
	<g>
		<path d="M43.12,47.81c-0.23,5.69-0.64,12.18,0.64,17.76c0.96,4.15,4.87,3.51,8.47,3.86c1.92,0.18,1.91-2.82,0-3
			c-2.36-0.23-4.41-0.44-5.69-2.83c-0.67-1.25-0.34-4.09-0.41-5.52c-0.17-3.43-0.15-6.84-0.01-10.27
			C46.2,45.88,43.2,45.88,43.12,47.81L43.12,47.81z"/>
	</g>
</g>
<g>
	<g>
		<path d="M53.26,57.48c2.72,0,5.45,0,8.17,0c1.93,0,1.93-3,0-3c-2.72,0-5.45,0-8.17,0C51.32,54.48,51.32,57.48,53.26,57.48
			L53.26,57.48z"/>
	</g>
</g>
<g>
	<g>
		<path d="M56.12,51.13c-0.01,3.15-0.02,6.3-0.04,9.45c-0.01,2.33-0.47,5.16,0.19,7.45c1.1,3.82,5.07,3.85,8.3,3.26
			c1.9-0.34,1.09-3.24-0.8-2.89c-2.41,0.44-4.62-0.07-4.71-2.73c-0.06-1.69,0.01-3.4,0.02-5.09c0.01-3.15,0.02-6.3,0.04-9.45
			C59.12,49.2,56.12,49.2,56.12,51.13L56.12,51.13z"/>
	</g>
</g>
<g>
	<g>
		<path d="M74.7,58.1c-1.64-0.22-4.27-1.11-5.87-0.49c-1.43,0.55-1.64,2.16-1.87,3.49c-0.55,3.24,0.05,6.82,3.46,8.12
			c2.51,0.96,6.73,1.16,8.27-1.47c1.48-2.52,1.27-6.6-0.5-8.86c-1.19-1.52-3.3,0.62-2.12,2.12c0.82,1.05,0.73,3.72,0.19,4.91
			c-0.6,1.32-3.62,1.02-4.79,0.51c-2.17-0.95-1.78-3.36-1.48-5.27c0.19-1.15,0.49-0.63,1.64-0.47c1.02,0.14,2.05,0.27,3.07,0.41
			C76.61,61.35,76.59,58.35,74.7,58.1L74.7,58.1z"/>
	</g>
</g>
<g>
	<g>
		<path d="M81.9,58.79c-0.31,2.62-0.61,5.25-0.92,7.87c0.98-0.13,1.96-0.27,2.95-0.4c-0.35-2.26,0.5-4.38,2.13-5.93
			c-0.84-0.22-1.67-0.44-2.51-0.66c0.76,1.9,1.03,3.77,0.84,5.81c-0.13,1.44,1.66,1.78,2.56,1.06c1.79-1.43,1.39-3.34,2.16-5.24
			c0.83-2.04,0.95,1.16,1.01,1.88c0.13,1.51,0.27,3.03,0.4,4.54c0.17,1.91,3.17,1.93,3,0c-0.22-2.45-0.29-4.97-0.68-7.4
			c-0.22-1.42-0.97-2.66-2.49-2.9c-1.33-0.21-2.72,0.49-3.46,1.59c-1.1,1.6-0.53,4.16-2.07,5.4c0.85,0.35,1.71,0.71,2.56,1.06
			c0.21-2.28-0.1-4.48-0.95-6.61c-0.41-1.04-1.63-1.5-2.51-0.66c-2.47,2.35-3.42,5.52-2.91,8.85c0.28,1.81,2.77,1.12,2.95-0.4
			c0.31-2.62,0.61-5.25,0.92-7.87C85.12,56.88,82.12,56.89,81.9,58.79L81.9,58.79z"/>
	</g>
</g>
</svg>
