<?xml version="1.0" encoding="utf-8"?>
<!-- Generator: Adobe Illustrator 23.0.0, SVG Export Plug-In . SVG Version: 6.00 Build 0)  -->
<svg version="1.1" id="Layer_1" xmlns="http://www.w3.org/2000/svg" xmlns:xlink="http://www.w3.org/1999/xlink" x="0px" y="0px"
	 viewBox="0 0 100 100" style="enable-background:new 0 0 100 100;" xml:space="preserve">
<g>
	<g>
		<path d="M1.06,2.66c0.24,31.41,0.48,62.81,0.73,94.22c0.01,1.93,3.01,1.93,3,0C4.55,65.47,4.31,34.06,4.06,2.66
			C4.05,0.73,1.05,0.72,1.06,2.66L1.06,2.66z"/>
	</g>
</g>
<g>
	<g>
		<path d="M3.43,99.17c31.49,0.21,62.98,0.1,94.46-0.34c1.93-0.03,1.93-3.03,0-3c-31.49,0.44-62.97,0.55-94.46,0.34
			C1.5,96.16,1.49,99.16,3.43,99.17L3.43,99.17z"/>
	</g>
</g>
<g>
	<g>
		<path d="M99.39,96.99c-1.98-7.94-0.99-15.87-0.57-23.92c0.4-7.73,0.12-15.51,0.05-23.24c-0.15-15.97-0.29-31.95-0.44-47.92
			c-0.02-1.93-3.02-1.93-3,0c0.15,16.64,0.3,33.28,0.46,49.92c0.07,7.71,0.29,15.43-0.18,23.13c-0.47,7.71-1.1,15.25,0.79,22.83
			C96.96,99.66,99.86,98.86,99.39,96.99L99.39,96.99z"/>
	</g>
</g>
<g>
	<g>
		<path d="M2.66,3.4c31.32,0.62,62.63,1.21,93.95,0.47c1.93-0.05,1.93-3.05,0-3C65.29,1.61,33.99,1.02,2.66,0.4
			C0.73,0.36,0.73,3.36,2.66,3.4L2.66,3.4z"/>
	</g>
</g>
<g>
	<g>
		<path d="M12.89,29.52c5.35-0.03,10.53,0.74,15.65,2.32c1.85,0.57,2.64-2.32,0.8-2.89c-5.36-1.65-10.83-2.46-16.44-2.43
			C10.96,26.53,10.96,29.53,12.89,29.52L12.89,29.52z"/>
	</g>
</g>
<g>
	<g>
		<path d="M11.79,29.25c-0.64,8.01-1,16.04-1.03,24.08c-0.02,6.42-0.16,12.76,2.59,18.68c0.81,1.75,3.4,0.23,2.59-1.51
			c-2.97-6.4-2.25-14.15-2.14-21.03c0.11-6.75,0.46-13.49,0.99-20.22C14.94,27.32,11.94,27.33,11.79,29.25L11.79,29.25z"/>
	</g>
</g>
<g>
	<g>
		<path d="M11.42,50.3c0.78,2.09,2.56,2.12,4.57,2.14c4.16,0.03,8.32-0.01,12.48-0.01c1.93,0,1.93-3,0-3c-2.5,0-4.99,0-7.49,0
			c-0.52,0-6.58,0.31-6.67,0.07C13.64,47.72,10.73,48.49,11.42,50.3L11.42,50.3z"/>
	</g>
</g>
<g>
	<g>
		<path d="M31.34,55.28c-0.5,4.88-1,9.77-1.51,14.65c-0.17,1.67,2.63,2.05,2.95,0.4c0.93-4.78,2.71-9.89,7.88-11.36
			c1.85-0.53,1.07-3.42-0.8-2.89c-6.2,1.76-8.84,7.58-9.98,13.46c0.98,0.13,1.96,0.27,2.95,0.4c0.5-4.88,1-9.77,1.51-14.65
			C34.54,53.36,31.54,53.37,31.34,55.28L31.34,55.28z"/>
	</g>
</g>
<g>
	<g>
		<path d="M51.93,55.8c-0.77-1.61-2.6-2.21-4.24-1.51c-2.18,0.92-2.8,3.78-3.2,5.85c-0.5,2.59-1.1,6.23,0.19,8.67
			c1.22,2.32,4.16,2.31,6.44,2.47c2.39,0.17,6.99,0.99,8.76-1.14c1.34-1.61,1.33-5.01,1.33-7.01c-0.01-6.54-4.56-9.47-10.38-10.86
			c-1.88-0.45-2.68,2.44-0.8,2.89c3.06,0.73,6.49,1.65,7.74,4.91c0.55,1.44,0.49,3.09,0.37,4.61c-0.09,0.9-0.21,1.79-0.36,2.68
			c0.08,0.67-0.23,0.96-0.93,0.84c-1.18,0.56-3.24,0.2-4.5,0.15c-2.1-0.09-4.47,0.35-5.27-2.18c-0.44-1.39,0.05-3.88,0.3-5.23
			c0.03-0.19,1.4-4.79,1.96-3.62C50.18,59.06,52.76,57.54,51.93,55.8L51.93,55.8z"/>
	</g>
</g>
<g>
	<g>
		<path d="M63.19,54.51c0.16,6.24,0.04,12.46-0.36,18.69c1,0,2,0,3,0c-0.03-1.89,0-3.76,0.19-5.64c0.19-1.88,0.34-5.79,1.34-7.41
			c0.04-1.21,0.23-1.16,0.56,0.14c0.24,0.52,0.45,1.06,0.64,1.61c0.3,0.8,0.55,1.62,0.79,2.44c0.61,2.14,1.01,4.31,1.26,6.52
			c0.21,1.9,3.21,1.92,3,0c-0.39-3.55-1.11-7.01-2.37-10.36c-0.66-1.76-1.32-4.4-3.58-4.36c-2.42,0.04-3.03,2.9-3.5,4.77
			c-1,4.03-1.39,8.15-1.33,12.3c0.03,1.95,2.88,1.91,3,0c0.4-6.23,0.52-12.45,0.36-18.69C66.14,52.58,63.14,52.58,63.19,54.51
			L63.19,54.51z"/>
	</g>
</g>
<g>
	<g>
		<path d="M74.93,53.33c3.15,0.17,6.3,0.21,9.45,0.1c1.93-0.06,1.93-3.07,0-3c-3.15,0.11-6.3,0.07-9.45-0.1
			C73,50.22,73.01,53.22,74.93,53.33L74.93,53.33z"/>
	</g>
</g>
<g>
	<g>
		<path d="M79.61,44.3c-0.33,5.21-0.65,10.42-0.98,15.64c-0.17,2.73-1.37,7.09,0.39,9.47c2.97,4.02,10.91,1.63,14.39-0.07
			c1.74-0.84,0.22-3.43-1.51-2.59c-2.16,1.05-6.82,2.82-9.16,1.42c-2.5-1.5-1.25-5.97-1.11-8.24c0.33-5.21,0.65-10.42,0.98-15.64
			C82.74,42.38,79.73,42.38,79.61,44.3L79.61,44.3z"/>
	</g>
</g>
</svg>
