<?xml version="1.0" encoding="utf-8"?>
<!-- Generator: Adobe Illustrator 23.0.0, SVG Export Plug-In . SVG Version: 6.00 Build 0)  -->
<svg version="1.1" id="Layer_1" xmlns="http://www.w3.org/2000/svg" xmlns:xlink="http://www.w3.org/1999/xlink" x="0px" y="0px"
	 viewBox="0 0 100 100" style="enable-background:new 0 0 100 100;" xml:space="preserve">
<g>
	<g>
		<path d="M1.06,2.66c0.24,31.41,0.48,62.81,0.73,94.22c0.01,1.93,3.01,1.93,3,0C4.55,65.47,4.31,34.06,4.06,2.66
			C4.05,0.73,1.05,0.72,1.06,2.66L1.06,2.66z"/>
	</g>
</g>
<g>
	<g>
		<path d="M3.43,99.17c31.49,0.21,62.98,0.1,94.46-0.34c1.93-0.03,1.93-3.03,0-3c-31.49,0.44-62.97,0.55-94.46,0.34
			C1.5,96.16,1.49,99.16,3.43,99.17L3.43,99.17z"/>
	</g>
</g>
<g>
	<g>
		<path d="M99.39,96.99c-1.98-7.94-0.99-15.87-0.57-23.92c0.4-7.73,0.12-15.51,0.05-23.24c-0.15-15.97-0.29-31.95-0.44-47.92
			c-0.02-1.93-3.02-1.93-3,0c0.15,16.64,0.3,33.28,0.46,49.92c0.07,7.71,0.29,15.43-0.18,23.13c-0.47,7.71-1.1,15.25,0.79,22.83
			C96.96,99.66,99.86,98.86,99.39,96.99L99.39,96.99z"/>
	</g>
</g>
<g>
	<g>
		<path d="M2.66,3.4c31.32,0.62,62.63,1.21,93.95,0.47c1.93-0.05,1.93-3.05,0-3C65.29,1.61,33.99,1.02,2.66,0.4
			C0.73,0.36,0.73,3.36,2.66,3.4L2.66,3.4z"/>
	</g>
</g>
<g>
	<g>
		<path d="M16.45,30.78c-0.08,7.27-1.29,14.36-2.65,21.48c-0.69,3.63-1.42,7.25-1.99,10.9c-0.29,1.82-1.02,4.19-0.45,6.03
			c1.03,3.27,6.04,3.85,8.9,4.16c5.06,0.55,9.9-0.59,14.38-2.93c1.71-0.89,0.2-3.48-1.51-2.59c-3.93,2.05-10.92,4.23-15.31,2.06
			c-5.1-2.52-2.71-8.57-1.83-13.21c1.63-8.59,3.36-17.12,3.46-25.91C19.47,28.85,16.47,28.85,16.45,30.78L16.45,30.78z"/>
	</g>
</g>
<g>
	<g>
		<path d="M39.36,63.17c2.18,0.03,5.72,0.67,7.68-0.6c1.59-1.03,2.39-3.71,2.51-5.47c0.12-1.91-0.68-4-2.64-4.69
			c-2.16-0.76-4.76,0.77-6.46,1.96c-4.02,2.82-4.23,8.82-3.31,13.25c1.14,5.46,7.6,4.46,11.81,3.66c1.9-0.36,1.09-3.25-0.8-2.89
			c-3.07,0.58-7.16,1.67-8.21-2.26c-0.46-1.74-0.25-4.74,0.22-6.4c0.39-1.37,1.03-2.28,2.18-3.05c1.02-0.69,4.55-2.82,3.86,1.7
			c-0.39,2.59-5.07,1.81-6.85,1.78C37.43,60.14,37.43,63.14,39.36,63.17L39.36,63.17z"/>
	</g>
</g>
<g>
	<g>
		<path d="M66.61,54.9c-0.97-3.04-6.01-8.41-9.09-4.49c-1.33,1.7-1.08,4.9-1.22,6.9c-0.3,4.27-0.36,8.54-0.25,12.82
			c0.05,1.93,3.05,1.93,3,0c-0.1-3.56-0.08-7.13,0.12-10.69c0.09-1.66,0.2-3.32,0.37-4.98c0.42-4.12,3.38-1.26,4.18,1.24
			C64.3,57.53,67.2,56.74,66.61,54.9L66.61,54.9z"/>
	</g>
</g>
<g>
	<g>
		<path d="M53.04,62.63c3.23-0.86,6.47-1.16,9.81-0.96c1.93,0.12,1.92-2.88,0-3c-3.59-0.22-7.13,0.14-10.61,1.06
			C50.38,60.23,51.17,63.12,53.04,62.63L53.04,62.63z"/>
	</g>
</g>
<g>
	<g>
		<path d="M72.81,60.37c1.79,0,3.57,0,5.36,0c1.93,0,1.93-3,0-3c-1.79,0-3.57,0-5.36,0C70.88,57.37,70.87,60.37,72.81,60.37
			L72.81,60.37z"/>
	</g>
</g>
<g>
	<g>
		<path d="M74.57,51.98c-0.13,3.47-0.22,6.94-0.24,10.4c-0.01,2.15-0.89,6.75,0.34,8.63c2.18,3.35,10.34,1.53,13.39,0.75
			c1.87-0.48,1.08-3.37-0.8-2.89c-2.02,0.52-4.3,1.06-6.41,0.85c-1.1-0.11-2.82-0.28-3.48-1.38c-0.45-0.75-0.04-2.88-0.04-3.72
			c-0.02-4.21,0.07-8.42,0.23-12.64C77.65,50.05,74.65,50.05,74.57,51.98L74.57,51.98z"/>
	</g>
</g>
</svg>
