<?xml version="1.0" encoding="utf-8"?>
<!-- Generator: Adobe Illustrator 23.0.0, SVG Export Plug-In . SVG Version: 6.00 Build 0)  -->
<svg version="1.1" id="Layer_1" xmlns="http://www.w3.org/2000/svg" xmlns:xlink="http://www.w3.org/1999/xlink" x="0px" y="0px"
	 viewBox="0 0 550 200" style="enable-background:new 0 0 550 200;" xml:space="preserve">
<g>
	<g>
		<path d="M43.73,61.22c-0.54-3.46-1.72-7.75-5.74-8.58c-3.43-0.71-5.67,2.11-6.88,4.9c-2.13,4.9-2.64,10.47-3.32,15.71
			C26.82,80.61,26.05,88,25.5,95.4c-0.97,13-2.22,26.78-0.49,39.75c0.53,3.96,1.28,10.42,4.55,13.33
			c3.51,3.13,10.52,3.77,14.99,4.75c12.67,2.77,25.47,3.02,38.38,3.02c5.98,0,11.99,0.23,17.96-0.05c4.53-0.21,9.58-1.05,12.64-4.75
			c1.83-2.22,2.61-5.31,0.78-7.76c-2.45-3.28-7.52-3.2-11.18-3.34c-13.54-0.54-27.05,1.95-40.58,0.79
			c-8.9-0.76-16.65-3.06-20.61-11.73c-3.26-7.13-3.96-15.28-3.64-23.02c0.64-15.4,5.67-30.22,7.33-45.5c0.21-1.92-2.79-1.9-3,0
			c-2.22,20.43-10.72,40.99-6.04,61.71c1.72,7.61,5.34,15.72,12.94,18.95c8.93,3.8,20.13,3.1,29.58,2.62
			c4.93-0.25,9.86-0.63,14.8-0.8c2.77-0.1,5.54-0.14,8.31-0.06c2.34,0.07,6.64-0.3,8.59,1.24c5.95,4.71-4.66,8.02-7.04,8.36
			c-2.28,0.33-4.57,0.32-6.87,0.32c-5.88,0.01-11.77,0.01-17.65-0.01c-10.8-0.02-21.52-0.37-32.13-2.54
			c-4.94-1.01-12.31-1.71-15.57-5.65c-3.94-4.76-3.98-12.17-4.11-18.12c-0.27-12.43,0.43-24.95,1.53-37.34
			c0.61-6.88,1.35-13.77,2.39-20.6c0.4-2.63,0.85-5.26,1.63-7.8c0.37-1.19,1-4.41,2.34-4.95c1.67,1.02,3.34,2.05,5.01,3.07
			c0.21,0.89,0.37,1.78,0.49,2.68C41.14,63.92,44.03,63.11,43.73,61.22L43.73,61.22z"/>
	</g>
</g>
<g>
	<g>
		<g>
			<path d="M110.74,133.02c-8.3,0.84-17.44-2.66-19.68-11.51c-2.45-9.67,5.7-15.14,14.31-15.42c3.68-0.12,7.37,0.31,10.92,1.31
				c2.22,0.62,6.27,1.72,6.89,4.27c0.3,1.21-0.09,3.4-0.19,4.59c-0.66,7.81-4.14,17.79-13.76,16.91c-1.92-0.17-1.91,2.83,0,3
				c10.9,0.99,15.81-9.91,16.68-19.07c0.43-4.57,1.01-8.36-3.49-10.67c-5.31-2.73-12.03-3.64-17.93-3.31
				c-9.58,0.52-18.12,6.8-16.67,17.33c1.53,11.11,12.63,16.61,22.92,15.57C112.64,135.83,112.66,132.83,110.74,133.02L110.74,133.02
				z"/>
		</g>
	</g>
	<g>
		<g>
			<path d="M110.35,123.83c-2.53,0.82-7.36-2.31-9.23-3.91c-0.81-0.7-1.57-1.52-2.12-2.44c-1.47-2.49,0.96-2.83,2.85-2.93
				c1.61-0.08,7.62-0.6,8.86,0.63c1.74,1.73,0.71,7.56,0.54,9.77c-0.15,1.93,2.85,1.92,3,0c0.24-3.07,0.4-6.29-0.04-9.35
				c-0.21-1.48-0.65-2.55-2.1-3.15c-2.27-0.93-5.53-0.92-7.93-0.94c-2.21-0.02-5.74-0.29-7.68,0.99c-3.38,2.24,0.1,7.33,2.16,9.24
				c2.77,2.57,8.56,6.27,12.49,4.99C112.98,126.13,112.19,123.23,110.35,123.83L110.35,123.83z"/>
		</g>
	</g>
</g>
<g>
	<g>
		<g>
			<path d="M138.99,141.28c-8.36-0.27-14.04-9.04-9.4-16.53c3.74-6.03,12.17-6.13,18.48-6.36c3.55-0.13,7.34-0.01,9.69,3.1
				c2.26,2.99,1.97,7.37,0.17,10.53c-3.65,6.38-12.93,9.75-19.86,9.87c-1.93,0.03-1.93,3.03,0,3c9.17-0.15,21.87-5.37,23.99-15.37
				c2.03-9.54-5.37-14.45-13.99-14.13c-9.08,0.33-20.27,1.54-22.78,12.06c-2.12,8.91,4.99,16.54,13.71,16.83
				C140.92,144.34,140.92,141.34,138.99,141.28L138.99,141.28z"/>
		</g>
	</g>
	<g>
		<g>
			<path d="M143.64,134.44c-2.15-0.44-4.07-1.35-5.6-2.95c-0.48-0.5-2.28-2.44-2.06-3.26c0.3-1.1,2.56-1.43,3.46-1.67
				c2.01-0.52,5.57-1.71,6.93,0.42c1.56,2.44,0.09,6.96-3.06,7c-1.93,0.03-1.93,3.03,0,3c4.71-0.07,6.94-4.52,6.49-8.78
				c-0.47-4.45-3.9-5.82-7.97-5.19c-3.26,0.5-9.92,1.3-8.74,6.02c1.08,4.34,5.61,7.46,9.75,8.31
				C144.73,137.72,145.54,134.83,143.64,134.44L143.64,134.44z"/>
		</g>
	</g>
</g>
<g>
	<g>
		<g>
			<path d="M178.41,100.17c-10.3,24.91-19.54,50.81-34.11,73.63c-0.66,1.04,0.23,2.16,1.3,2.26c3.74,0.34,11.8,2.69,14.91-0.69
				c1.44-1.56,1.2-3.26,0.74-5.13c-0.53-2.12-1.81-2.58-1.8-5.33c0.01-2.25,1.29-4.46,2.42-6.32c3.91-6.41,8.71-12.03,12.12-18.8
				c1.45-2.87,2.36-6.66,4.15-9.29c3.03-4.46,9.84-1.29,14.02-0.2c5.13,1.34,10.31,3.78,13.61-1.64c2.66-4.36,4.85-10.61,3.93-15.75
				c-2.15-11.94-20.42-14.92-30.21-14.85c-1.93,0.01-1.93,3.01,0,3c7-0.05,13.84,1.33,20.1,4.54c3.47,1.78,6.34,3.79,7.1,7.92
				c0.68,3.7-0.73,7.65-2.23,11c-5.24,11.76-20.46-5.82-27.74,2.46c-3.13,3.56-4.28,9.45-6.54,13.63c-2.9,5.38-6.53,10.12-10,15.12
				c-2.22,3.2-4.29,6.98-3.58,11.01c0.52,2.92,3.08,7.25-1.7,7.16c-3.09-0.06-6.24-0.56-9.31-0.84c0.43,0.75,0.86,1.5,1.3,2.26
				c14.7-23.03,24.02-49.22,34.41-74.35C182.04,99.19,179.14,98.41,178.41,100.17L178.41,100.17z"/>
		</g>
	</g>
	<g>
		<g>
			<path d="M192.42,110.62c-1.94-0.91-4.43-1.98-6.63-1.54c-2.26,0.45-2.79,2.46-3.09,4.5c-0.29,1.99-0.6,4.61,0.73,6.33
				c1.24,1.61,3.66,2.1,5.54,2.37c3.62,0.53,9.35,1.27,10.34-3.5c1.03-4.95-4.24-7.37-8.06-8.49c-1.86-0.54-2.65,2.35-0.8,2.89
				c2.08,0.61,5.22,1.38,5.79,3.86c0.72,3.15-3.32,2.62-5.31,2.45c-1.17-0.1-2.35-0.24-3.47-0.6c-1.69-0.54-1.93-1.73-1.97-3.31
				c-0.01-0.61,0.01-3.21,0.98-3.6c1.02-0.41,3.57,0.82,4.42,1.22C192.64,114.03,194.17,111.45,192.42,110.62L192.42,110.62z"/>
		</g>
	</g>
</g>
<g>
	<g>
		<path d="M260.72,53.02c-5.38-5.7-19.46-15.9-26.14-6.61c-3.68,5.12-2.8,12.87-2.84,18.79c-0.06,7.47-0.1,14.99,0.56,22.43
			c1.04,11.57,4.4,22.95,14.66,29.51c7.04,4.5,13.09,7.73,14.78,16.71c1.37,7.28,2.48,16.64-0.26,23.66
			c-2.9,7.42-10.98,11.65-18.38,13.33c-7.59,1.72-19.85,1.91-24.56-5.62c-1.89-3.02-1.92-8.43,4.24-6.25c1.39,0.49,2.68,1.62,4,2.29
			c2.78,1.39,5.74,2.34,8.81,2.8c4.5,0.68,10.02,0.49,13.62-2.72c4.09-3.64,4.35-10.99,4.83-16.04c0.58-6.15-0.28-12.25-3.6-17.56
			c-2.76-4.41-6.81-7.88-11.59-9.93c-4.38-1.88-8.79-2.62-10.8-7.6c-1.37-3.39-1.68-7.44-2.26-11.02
			c-2.79-17.16-4.95-38.1,2.37-54.47c4.52-10.11,14.83-12.24,23.81-6.11c3.78,2.58,7.31,6.27,9.84,10.07
			c1.19,1.79,2.24,3.77,2.75,5.87c1.32,5.44-3.6,0.84-4.48-1.76c-0.62-1.82-3.52-1.04-2.89,0.8c0.99,2.9,5.76,10.32,9.58,6.82
			c3.78-3.45-1.09-11.57-3.27-14.52c-7.14-9.69-21.98-20.05-33.09-9.78c-4.95,4.58-6.89,11.7-8.14,18.08
			c-1.74,8.87-2.08,17.97-1.55,26.98c0.51,8.69,1.69,17.45,3.45,25.98c1.59,7.7,5.31,10.22,12.3,12.93
			c9.17,3.55,14.77,11.89,14.77,21.71c0,4.34-0.72,9.09-1.87,13.29c-1.78,6.52-8.95,6.95-14.57,5.81c-4.45-0.9-7.77-3.42-11.81-5.16
			c-2.01-0.87-4.24-1.34-6.2-0.07c-4.29,2.78-2.52,9.11,0.1,12.37c8.8,10.96,29.1,7.39,39.19,0.45c5.26-3.62,8.59-8.59,9.54-14.93
			c1.11-7.37,0.46-16.44-1.73-23.59c-2.48-8.08-8.74-11.15-15.4-15.41c-8.84-5.65-11.94-15.47-13.03-25.41
			c-1.1-10.05-0.86-20.33-0.64-30.42c0.15-6.83,1.63-14.74,10.46-12.33c5.14,1.41,9.73,4.95,13.32,8.75
			C259.93,56.54,262.04,54.42,260.72,53.02L260.72,53.02z"/>
	</g>
</g>
<g>
	<g>
		<path d="M281.12,103.91c-5.82-3.68-16.09-1.99-13.97,6.86c0.16,0.65,0.8,1.09,1.45,1.1c4.01,0.07,11.95-1.14,14.59,2.56
			c0.97,1.36,0.43,4.93,0.47,6.62c0.06,2.52,0.03,5.03-0.09,7.55c-0.22,4.9-0.78,9.77-1.66,14.59c-0.83,4.5-2.44,8.83-3.28,13.29
			c-0.78,4.15,0.67,7.57,5.23,7.99c1.91,0.18,5.34-0.09,6.83-1.5c1.86-1.76,1.2-5.36,1.06-7.63c-0.27-4.42-0.78-8.73-0.46-13.17
			c0.32-4.39,1.13-8.72,1.59-13.1c0.37-3.54,0.56-7.13,0.05-10.67c-0.19-1.36-1.53-4.65-0.73-5.53c0.91-1,3.56,0.62,5.12,0.75
			c3.9,0.3,9.07-2.64,7.48-7.29c-1.4-4.12-6.4-3.61-9.77-3.09c-0.86,0.14-2.71,0.77-3.58,0.47c-1.92-0.65-2.92-2.74-3.35-4.35
			c-0.37-1.39-0.07-2.51-0.89-3.8c-1.04-1.63-2.71-2.29-4.62-1.94c-6.13,1.14-4.75,8.16-2.61,12.07c0.93,1.69,3.52,0.18,2.59-1.51
			c-1.6-1.91-0.75-3.51,2.53-4.81c-0.02,0.89,0.04,1.77,0.19,2.65c0.14,0.67,0.3,1.36,0.65,1.96c0.91,1.57,2.49,2.34,4.23,2.63
			c2.64,0.44,5.76-1.42,8.17-0.79c2.09-0.25,2.04,1.39-0.14,4.91c-1.67-0.17-3.26-0.6-4.77-1.29c-1.12-0.26-1.21-0.48-2.12-0.41
			c-5.53,0.45-1.25,9.64-1.11,12.31c0.42,7.88-1.87,15.6-2.05,23.45c-0.09,4.03,1.77,9.7,0.73,13.49c-0.61,2.2-3.34,4.51-5.73,3.07
			c-3-1.82-1.33-5.02-0.71-7.26c2.23-8.02,3.63-16.24,4.08-24.55c0.21-3.77,0.23-7.55,0.03-11.32c-0.12-2.25-0.06-5.08-1.54-6.97
			c-3.16-4.04-12.13-2.3-16.42-2.38c0.48,0.37,0.96,0.73,1.45,1.1c-1.57-6.55,6.44-5.45,9.56-3.47
			C281.24,107.54,282.75,104.94,281.12,103.91L281.12,103.91z"/>
	</g>
</g>
<g>
	<g>
		<g>
			<path d="M307.53,139.86c6.11-2.73,9.44,2.05,10.89,7.13c1.44,5.04,2.52,11.13-4.55,12.02c-3.29,0.41-8.4,0.71-11.57-0.31
				c-4.88-1.58-4.17-5.44-0.12-6.86c2-0.7,5.18,1.17,6.91,1.67c2.87,0.83,6.26,0.05,6.83-3.38c0.24-1.42-0.24-2.95-1.29-3.96
				c-0.44-0.43-1.02-0.65-1.53-0.95c-2.86-1.72-4.15-1.93-5.19-5.26c-0.58-1.84-3.47-1.05-2.89,0.8c0.56,1.79,1.19,3.84,2.54,5.22
				c0.69,0.71,1.6,0.91,2.29,1.52c1.11,0.99,2.5-0.79,0.22,1.52c-1.85,1.88-3.8,0.06-6.37-0.13c-1.9-0.14-4.46-0.17-6.08,1.07
				c-2.18,1.67-2.4,5.61-1.34,7.99c1.56,3.5,6.17,3.97,9.49,4.09c3.91,0.14,11.27,1.39,14.58-1.36c2.91-2.43,2.28-7.37,1.79-10.64
				c-1.28-8.56-6.35-17.14-16.12-12.76C304.26,138.05,305.78,140.64,307.53,139.86L307.53,139.86z"/>
		</g>
	</g>
	<g>
		<g>
			<path d="M307.4,153.47c-1.75-1.5-4.49,0.05-3.98,2.39c0.56,2.57,4.27,3.1,6.41,3.2c2.17,0.1,4.93-0.45,4.66-3.22
				c-0.27-2.78-3.09-3.37-5.4-3.2c-1.91,0.14-1.93,3.14,0,3c0.56-0.04,1.32-0.19,1.86,0.02c0.97,0.37,0.42,0.39-0.31,0.41
				c-0.77,0.02-1.54-0.04-2.3-0.19c-0.35-0.07-0.71-0.16-1.05-0.27c-0.16-0.04-0.32-0.1-0.46-0.17c-0.48-0.25-1-0.2-1.55,0.16
				C306.73,156.85,308.86,154.74,307.4,153.47L307.4,153.47z"/>
		</g>
	</g>
</g>
<g>
	<g>
		<path d="M330.55,105.81c-3.75-1.63-9.39-1.28-10.21,3.74c-0.66,4.06,2.26,5.92,5.69,6.12c2.08,0.12,3.95-0.89,5.32,1.44
			c0.95,1.62,1.07,3.98,1.41,5.78c0.88,4.78,1.51,9.61,1.88,14.47c0.32,4.22,0.85,8.89-0.48,13c-1.13,3.51-3.49,6.05-3.13,9.9
			c0.07,0.72,0.43,1.19,1.1,1.45c3.48,1.34,7.88,2.63,11.03-0.24c3.04-2.77,1.49-6.15,0.69-9.59c-1.45-6.26-1.82-12.96-2.65-19.33
			c-0.9-6.95-1.81-13.89-2.71-20.84c-0.37,0.48-0.73,0.96-1.1,1.45c3.79-1.36,7.78,2.33,9.65-3.1c1.16-3.36-1.04-5.96-4.28-6.56
			c-1.19-0.22-2.36,0.1-3.53,0.01c-2.83-0.22-4.14-2.9-6.03-4.27c-1.1-0.79-1.09-1.63-2.81-1.58c-4.08,0.11-4.12,4.71-3.53,7.6
			c0.39,1.89,3.28,1.09,2.89-0.8c0.53-0.71,1.06-1.43,1.59-2.14c0.13,0.35,0.3,0.67,0.52,0.98c-0.01,0,1.09,1.37,1.14,1.41
			c1.16,1.08,2.43,1.57,3.99,1.78c0.74,0.1,1.49,0.04,2.24,0.03c0.68-0.04,1.36-0.07,2.04-0.09c0.09,1.32,0.17,2.65,0.26,3.97
			c-0.32,0.25-3.97-0.46-4.93-0.12c-0.56,0.2-1.19,0.77-1.1,1.45c1.19,9.16,2.38,18.31,3.57,27.47c0.49,3.74,0.88,7.5,1.48,11.22
			c0.26,1.59,1.27,3.68,1.24,5.23c-0.11,6.61-5.34,4.54-8.86,3.19c0.37,0.48,0.73,0.96,1.1,1.45c-0.28-2.98,1.41-4.99,2.46-7.59
			c0.87-2.14,1.28-4.38,1.42-6.67c0.35-5.76-0.43-11.72-1.22-17.42c-0.6-4.38-0.7-10.66-3.47-14.37c-0.7-0.94-1.49-1.64-2.61-1.99
			c-0.75-0.24-1.41-0.03-2.15-0.19c-0.13,0.02-0.27,0.04-0.4,0.05c-2.47,0.95-2.15-0.27,0.97-3.67
			C330.79,109.17,332.32,106.58,330.55,105.81L330.55,105.81z"/>
	</g>
</g>
<g>
	<g>
		<g>
			<path d="M359.35,148.81c3.95,0.03,10.79,1.68,13.44-2.19c2.26-3.31,0.99-8.1-1.46-10.92c-2.91-3.36-8.59-5.37-12.99-4.24
				c-4.59,1.17-6.1,6.8-6.71,10.89c-0.65,4.41-1.51,10.2,1.24,14.09c2.92,4.13,8.18,5.11,12.93,4.73c3.04-0.24,6.15-1.37,5.4-5.12
				c-0.34-1.72-1.57-2.9-3.08-3.65c-1.44-0.71-12.24-1.29-9.55-4.61c1.21-1.49-0.9-3.62-2.12-2.12c-1.91,2.35-1.65,5.3,0.79,7.26
				c1.54,1.23,3.6,1.35,5.47,1.56c1.04,0.06,2.08,0.16,3.12,0.3c1.1,2.46,0.82,3.59-0.84,3.41c-1.74,0.71-4.73-0.22-6.29-0.93
				c-4.55-2.08-4.77-6.82-4.43-11.23c0.33-4.16,0.7-11.15,5.96-11.79c4.21-0.51,13.22,4.02,10.56,9.58
				c-1.55,3.23-8.69,1.99-11.43,1.97C357.42,145.79,357.42,148.79,359.35,148.81L359.35,148.81z"/>
		</g>
	</g>
	<g>
		<g>
			<path d="M359.85,138.88c-0.89,2.01-1.45,4.81,0.89,6.09c1.83,1.01,5.17,0.87,6.94-0.22c2.12-1.31,2.34-4.02,0.84-5.89
				c-1.9-2.39-5-2.11-7.7-1.64c-1.9,0.33-1.09,3.22,0.8,2.89c1.23-0.21,2.84-0.56,3.99,0.12c0.82,0.48,1.35,1.56,0.3,2.07
				c-0.81,0.4-1.96,0.32-2.83,0.23c-0.48-0.05-0.9-0.02-1.06-0.51c-0.14-0.44,0.23-1.24,0.4-1.62
				C363.21,138.64,360.63,137.12,359.85,138.88L359.85,138.88z"/>
		</g>
	</g>
</g>
<g>
	<g>
		<path d="M388.35,153.67c-2.15-2.64-5.67-0.32-6.06,2.45c-0.43,3.06,1.46,6.48,4.27,7.77c3.11,1.44,5.98-1.35,6.27-4.39
			c0.33-3.49-2.48-6.2-5.86-6.28c-1.93-0.05-1.93,2.95,0,3c1.47,0.03,2.81,1,2.9,2.57c0.07,1.27-0.75,2.87-2.2,2.3
			c-1.01-0.4-1.82-1.68-2.17-2.66c-0.2-0.56-0.37-1.27-0.26-1.87c0.09-0.49,0.45-1.44,0.99-0.77
			C387.46,157.29,389.57,155.16,388.35,153.67L388.35,153.67z"/>
	</g>
</g>
</svg>
