<?xml version="1.0" encoding="utf-8"?>
<!-- Generator: Adobe Illustrator 23.0.0, SVG Export Plug-In . SVG Version: 6.00 Build 0)  -->
<svg version="1.1" id="Layer_1" xmlns="http://www.w3.org/2000/svg" xmlns:xlink="http://www.w3.org/1999/xlink" x="0px" y="0px"
	 viewBox="0 0 800 350" style="enable-background:new 0 0 800 350;" xml:space="preserve">
<g>
	<g>
		<path d="M149.55,218.84c-5.38-0.39-5.47-3.54-5.78-8.22c-0.16-2.46-0.32-4.94-0.23-7.4c0.05-1.29-0.01-6.93,1.29-7.68
			c0.1-0.06,4.61,0.55,5.45,0.58c2.37,0.09,4.74,0.17,7.11,0.26c4.62,0.17,9.59-0.15,11.8,4.7c1.99,4.38,8.21,20.33,1.97,23.07
			c-3.52,1.54-9.43,0.3-12.95-0.64c-4.53-1.21-8.5-3.38-12.22-6.2c-5.12-3.9-10.11,4.78-5.05,8.63c6.24,4.75,13.59,7.63,21.39,8.43
			c6.32,0.65,14.15,0.48,18.27-5.1c4.32-5.86,3.09-13.85,1.47-20.42c-1.59-6.43-3.34-14.44-8.92-18.67c-5.9-4.47-14.1-3.75-21.1-4
			c-8.31-0.3-14.93-0.91-17.4,8.45c-1.88,7.14-1.71,15.86-0.1,23.08c1.73,7.76,7.52,10.58,14.99,11.13
			C155.97,229.31,155.94,219.3,149.55,218.84L149.55,218.84z"/>
	</g>
</g>
<g>
	<g>
		<path d="M158.54,199.11c-8.76-2.15-13.16,6.25-12.69,13.79c0.23,3.77,1.23,6.54,4.5,8.65c3.65,2.35,8.05,3.73,12.33,4.3
			c3.71,0.49,7.42,0.06,9.49-3.48c1.88-3.2,1.41-7.5,0.57-10.96c-0.86-3.54-2.74-6.69-5.76-8.78c-2.78-1.92-6.64-2.29-8.82-4.97
			c-4.06-4.99-11.1,2.12-7.07,7.07c1.94,2.38,4.52,3.53,7.27,4.71c3,1.28,4.48,2.38,4.96,5.8c0.09,0.7,0.13,1.4,0.13,2.11
			c1.79-1.11,1.73-1.6-0.17-1.46c-1.46-0.86-3.82-0.92-5.43-1.65c-0.84-0.4-1.66-0.85-2.46-1.33c0.62,1.12,0.75,0.88,0.4-0.71
			c0.19-0.93,0.27-3.4,0.08-3.45C162.13,210.28,164.79,200.64,158.54,199.11L158.54,199.11z"/>
	</g>
</g>
<g>
	<g>
		<path d="M217.88,207.94c-4.28-0.87-8.55-1.74-12.83-2.61c-3.14-0.64-6.56-1.73-9.78-0.91c-6.45,1.65-8.25,9.62-8.91,15.26
			c-1.54,13.23,3.92,28.28,18.45,30.7c12.4,2.07,27.27-0.49,28.48-15.5c0.94-11.61-6.6-27.88-18.97-30.32
			c-6.29-1.24-8.98,8.4-2.66,9.64c7.1,1.4,10.89,10.62,11.64,17.15c0.43,3.8-0.61,7.79-4.49,9.12c-3.14,1.08-8.92,0.73-12.14,0.15
			c-8.9-1.59-11.21-11.27-10.5-19.14c0.13-1.47,0.42-4.41,1.18-5.78c1.3-2.32,2.46-1.26,5.04-0.74c4.28,0.87,8.55,1.74,12.83,2.61
			C221.5,218.85,224.19,209.22,217.88,207.94L217.88,207.94z"/>
	</g>
</g>
<g>
	<g>
		<path d="M210.25,217.52c-6.51-2.48-13.41,3-13.6,9.66c-0.21,7.2,5.8,12.34,12.5,13.32c7.13,1.04,14.77-3.03,13.4-11.22
			c-1.14-6.85-7.57-11.58-14.37-11.46c-6.43,0.11-6.45,10.11,0,10c1.6-0.03,3.15,0.48,4.06,1.9c0.45,0.69,0.26,1.25,0.62,0.95
			c-0.35,0.28-1.57,0.11-1.97,0.06c-1.37-0.15-4.23-1.02-4.23-2.85c0-0.5-0.01-0.59,0.28-0.97c0.05-0.07-0.41-0.15,0.66,0.25
			c2.52,0.96,5.48-1.07,6.15-3.49C214.51,220.85,212.78,218.49,210.25,217.52L210.25,217.52z"/>
	</g>
</g>
<g>
	<g>
		<path d="M268.35,102.96c-10.76,50.27-11.9,102.73-30.33,151.21c-0.91,2.4,1.02,5.66,3.49,6.15c7.73,1.53,17.8,2.95,25.31-0.16
			c2.85-1.18,5.35-3.34,5.89-6.53c0.68-3.97-1.53-5.74-3.52-8.68c-2.14-3.17-0.53-8.41-0.11-12.1c0.59-5.24,1.17-10.48,1.76-15.73
			c1.12-9.99,2.12-20.01,3.38-29.98c1.23-9.7,3.97-18.61,7.92-27.53c0.85-1.92,1.04-3.66,3.19-4.1c1.86-0.39,5.15,0.64,7.02,0.88
			c4.14,0.54,8.46,1.48,12.66,1.27c7.96-0.39,12.21-5.21,13.7-12.74c1.57-7.9,2.72-16.23,0.8-24.18
			c-5.14-21.24-28.53-23.2-46.52-22.09c-6.39,0.39-6.44,10.4,0,10c14.11-0.87,34.93-1.12,37.31,17.17c0.43,3.26,0.24,6.63-0.15,9.89
			c-0.34,2.93-0.37,8.49-2.38,10.78c-1.64,1.88-5.15,1.17-7.4,0.93c-4.22-0.45-8.41-1.13-12.62-1.64
			c-7.63-0.94-11.27,2.08-14.24,8.77c-3.2,7.22-6.19,14.5-7.72,22.28c-3.18,16.1-4.11,32.83-5.94,49.12
			c-0.82,7.32-4.07,17.62,0.66,24.16c0.84,1.17,2.18,3.55,2.72,1.68c0.64-2.17,0.06-0.54-0.91-0.66c-1-0.13-2.44,0.36-3.47,0.44
			c-4.93,0.4-9.85,0.05-14.69-0.91c1.16,2.05,2.33,4.1,3.49,6.15c18.43-48.47,19.57-100.93,30.33-151.21
			C279.34,99.34,269.7,96.66,268.35,102.96L268.35,102.96z"/>
	</g>
</g>
<g>
	<g>
		<path d="M287.21,115.52c-10.37-0.94-13.04,7.37-11.89,16.09c1.21,9.24,8.24,14.35,17.46,14.23c8.39-0.11,15.44-7.45,12.24-15.92
			c-2.76-7.29-11.33-14.43-19.18-14.73c-6.44-0.25-6.42,9.75,0,10c3.12,0.12,6.03,3.31,7.96,5.52c2.01,2.29,3.12,4.76-1.02,5.13
			c-3.02,0.28-6.29-0.77-7.26-3.74c-0.48-1.47-0.58-3.29-0.58-4.83c0.01-2.42,0.06-1.96,2.28-1.76
			C293.62,126.1,293.58,116.1,287.21,115.52L287.21,115.52z"/>
	</g>
</g>
<g>
	<g>
		<path d="M476.87,159.72c-5.61,2.53-11.6,1.1-16.14,6.21c-3.67,4.13-3.62,10.25,0.59,14c4.71,4.2,10.85,3.05,16.35,1.5
			c0.26-0.07,2.29-0.45,2.38-0.65c-0.12,0.28-0.12-3.76-0.68-0.9c-0.35,1.78,0.13,4.13,0.17,5.95c0.11,4.3,0.19,8.6,0.23,12.9
			c0.09,8.27,0.06,16.54-0.09,24.81c-0.07,3.97-0.17,7.94-0.3,11.9c-0.08,2.66,0.93,9.53-1.86,10.97c-2.18,1.12-5.38,0.32-7.79,1.54
			c-2.36,1.19-4.31,3.11-5.02,5.71c-1.51,5.57,3.04,9.88,8.06,11.2c6.69,1.76,14.4,0.47,20.99-1.14c5.32-1.3,14.67-2.61,17.82-7.75
			c3.15-5.13-0.86-10.51-5.99-11.8c-1.16-0.29-2.61-0.02-3.71-0.41c-1.48-0.51-0.84,0.41-0.91-1.9c-0.13-4.23-0.93-8.53-1.33-12.74
			c-0.79-8.18-1.45-16.36-1.99-24.56c-0.26-3.93-0.49-7.87-0.69-11.81c-0.1-1.97-0.19-3.94-0.28-5.91c-0.08-1.8-0.82-4.92-0.25-6.61
			c0.92-2.72,6.06-2.57,8.75-3.08c3.35-0.63,6.9-1.1,9.85-2.95c4.48-2.81,6.7-8.77,3.81-13.49c-3.33-5.45-10.4-5.33-15.98-4.99
			c-2.17,0.13-4.35,0.22-6.52,0.4c-2.27,0.18-2.26,0.66-2.3-1.49c-0.06-3.18,0.69-6-0.78-9.04c-2.77-5.73-9.64-6.38-14.47-2.86
			c-6.53,4.76-4.9,12.43-5.37,19.45c-0.43,6.42,9.57,6.4,10,0c0.19-2.77-0.34-5.69,0.04-8.43c0.35-2.52,0.45-1.33,0.97-2.78
			c0.27-0.17,0.54-0.35,0.8-0.52c-1.01-0.8-1.31-0.51-0.89,0.89c-1.31,3.44-0.24,9.06,2.08,11.83c3.05,3.63,7.51,3.1,11.78,2.84
			c2.85-0.17,5.75-0.52,8.62-0.5c0.8,0.01,2.09-0.12,2.84,0.3c0.64,0.3,0.74,0.22,0.28-0.24c-0.72,0.46-1.49,0.76-2.32,0.92
			c-9.68,2.9-21.15,1.21-21.19,14.45c-0.04,13.07,1.28,26.33,2.39,39.35c0.5,5.89,1.07,11.78,1.7,17.66
			c0.52,4.81,0.2,10.84,4.61,13.95c1.61,1.13,3.48,1.56,5.41,1.77c0.48,0.05,7.03,0.66,1.99-3c-0.17-0.12-3.64,1.18-3.49,1.13
			c-5.94,1.88-12.05,3.69-18.32,3.78c-1.48,0.02-3.01,0.04-4.47-0.24c-0.28-0.04-0.57-0.08-0.85-0.13
			c-1.49-0.89-1.71-0.39-0.68,1.48c1.39,0.55,5.5-0.59,6.76-1.03c4.61-1.6,6.79-5.78,7.38-10.37c1.59-12.29,0.94-25.27,0.94-37.64
			c0-7.28-0.1-14.55-0.28-21.83c-0.13-5.05,0.88-11.94-4.72-14.47c-2.35-1.06-4.99-0.75-7.44-0.22c-2.08,0.45-6.55,2.86-8.45,1.7
			c-1.94-1.18,3.55-2,4.62-2.18c2.97-0.49,5.58-1.05,8.36-2.3C487.78,165.71,482.7,157.09,476.87,159.72L476.87,159.72z"/>
	</g>
</g>
<g>
	<g>
		<path d="M523.19,218.96c8.99-5.95,15.96,7.19,17.37,14.35c0.88,4.44,0.4,9.36-4.11,11.56c-3.77,1.84-8.71,1.81-12.83,1.6
			c-2.86-0.15-4.47-0.89-5.6-3.59c-1.38-3.29-0.32-2.8,2.53-2.78c4.2,0.03,8.38-0.45,11.16-3.98c2.53-3.21,2.32-7.31,0.25-10.7
			c-1.06-1.74-2.49-3.18-4.11-4.4c-0.94-0.71-1.9-1.29-2.95-1.81c-2.85-1.41-0.64-0.27-3.65,1.41c5.62-3.14,0.58-11.78-5.05-8.63
			c-5.82,3.26-4.64,10.98,0.44,14.28c1.57,1.02,3.4,1.69,5.06,2.57c1.66,0.88,2.72,1.15,0.48,1.33c-3.98,0.31-7.52-0.53-11.07,1.9
			c-6.12,4.17-4.09,12.54-0.68,17.9c4.34,6.84,12.53,6.96,19.79,6.38c6.8-0.54,13.85-2.57,17.75-8.65
			c3.65-5.68,3.51-12.92,1.69-19.21c-3.73-12.91-17.36-27.54-31.53-18.15C512.8,213.87,517.8,222.53,523.19,218.96L523.19,218.96z"
			/>
	</g>
</g>
<g>
	<g>
		<path d="M525.43,234.86c-5.78,0.12-9.01,6.58-6.01,11.42c3.04,4.9,10.13,4.85,14.91,3.05c4.93-1.85,11.56-6.98,8.08-12.94
			c-2.87-4.91-12-3.55-16.65-2.96c-2.68,0.34-5,2.06-5,5c0,2.44,2.3,5.34,5,5c3.17-0.4,7.45-1.09,10.54-0.06
			c-0.74-0.43-1.47-0.86-2.21-1.29c0.15,0.12,0.31,0.24,0.46,0.36c-0.43-0.74-0.86-1.47-1.29-2.21c0.09,0.23,0.18,0.46,0.27,0.69
			c0-0.89,0-1.77,0-2.66c-0.11,0.71-2.49,1.73-3.65,1.98c-0.61,0.13-1.43,0.04-1.98,0.21c-0.27,0.07-0.53,0.01-0.8-0.17
			c1.37,1.24,1.45,2.53,0.23,3.89c-0.84,0.23-1.68,0.46-2.52,0.68c0.2,0,0.4-0.01,0.6-0.01
			C531.86,244.72,531.88,234.72,525.43,234.86L525.43,234.86z"/>
	</g>
</g>
<g>
	<g>
		<path d="M563.8,150.49c-8.62,0.97-28.31,1.61-25.13,15.57c1.53,6.71,7.16,6.52,12.75,6.4c2.55-0.06,8.11-0.68,10.42,0.69
			c2.07,1.23,1.29,5.41,1.33,7.68c0.23,14.91,0.47,29.83,0.7,44.74c0.06,3.89,0.12,7.78,0.18,11.67c0.03,1.95,0.07,3.89,0.09,5.84
			c0.01,0.84-0.4,3.33,0.3,2.65c-1.63,1.56-4.83,1.63-6.69,3.28c-2.04,1.81-2.75,3.84-3,6.51c-0.19,2.07,1.68,4.38,3.67,4.82
			c8.39,1.86,48.87,7.08,43.86-11.28c-0.82-3.02-3.34-5.21-6.26-6.19c-2.55-0.86-8.38,0.22-9.53-1.62
			c-0.75-1.19,0.03-5.35,0.06-6.65c0.06-2.48,0.11-4.97,0.06-7.45c-0.1-5.06-0.67-10.06-1.73-15.01
			c-2.11-9.92-4.67-19.38-4.85-29.61c-0.04-2.5,0.01-5,0.16-7.5c0.05-0.79-0.05-3.15,0.29-3.68c-0.03,0.04-1.33,0.78-0.08,0.29
			c1.29-0.51,3.68,0.04,5.05-0.03c1.96-0.11,3.91-0.4,5.68-1.29c6.77-3.41,8.87-12.1,4.32-18.15c-2.23-2.97-5.47-4.57-9.14-4.88
			c-1.82-0.16-4.22,0.61-5.96,0.13c-2.28-0.63-1.99-2.58-2.24-4.69c-0.84-7.13-5.14-16.79-14.21-12.97
			c-3.55,1.5-5.83,5.02-6.64,8.69c-1.1,4.98,1.33,9.47,1.6,14.36c0.36,6.4,10.36,6.44,10,0c-0.2-3.66-2.79-8.86-1.84-12.34
			c0.76-2.76,0.87,0.62,1.04,1.62c0.28,1.73,0.24,3.51,0.58,5.24c0.66,3.3,2.21,6.48,5.14,8.34c3.69,2.34,7.12,0.97,11.04,1.57
			c1.79,0.27,4.59,1.46,2.46,3.72c-1.16,1.23-3.65,0.63-5.11,0.64c-3.22,0.02-6.6,0.37-9,2.79c-2.77,2.79-2.78,7-3,10.66
			c-0.28,4.68-0.22,9.38,0.17,14.05c0.79,9.41,3.5,18.26,5.23,27.49c0.95,5.04,1.08,10.12,1.01,15.23
			c-0.06,4.12-0.82,8.72,0.31,12.76c0.95,3.42,3.6,6.1,7.02,7.08c1.82,0.52,3.73,0.46,5.6,0.49c0.87-0.07,1.74-0.06,2.61,0.02
			c0.96-1.8,0.68-2.18-0.84-1.16c-2.07-0.28-5.22,0.99-7.37,1.19c-2.49,0.24-4.99,0.34-7.49,0.32c-5.21-0.04-10.3-0.68-15.38-1.81
			c1.22,1.61,2.45,3.21,3.67,4.82c-0.14,1.45,4.48-1.01,5.21-1.51c1.75-1.19,3.03-2.78,3.69-4.8c1.72-5.28,0.39-12.33,0.31-17.81
			c-0.21-13.62-0.43-27.23-0.64-40.85c-0.13-8.44,2.54-23.76-8.24-26.88c-2.65-0.77-5.63-0.93-8.37-1.1c-1.29-0.08-8-0.93-8.81,0.07
			c0.08,1.63,0.35,1.98,0.8,1.05c0.29-0.55,0.75-0.94,1.37-1.15c0.86-0.49,2.13-0.64,3.09-0.82c3.48-0.65,7.12-0.83,10.64-1.23
			C570.13,159.78,570.2,149.77,563.8,150.49L563.8,150.49z"/>
	</g>
</g>
<g>
	<g>
		<path d="M629.3,117.31c-0.97-6.27-8.1-9.84-13.71-6.84c-5.73,3.07-6.34,11.32-4.43,16.89c1.77,5.17,8.02,9.58,13.55,9.7
			c7.97,0.17,7.15-9.89,6.93-15.29c-0.26-6.41-10.26-6.45-10,0c0.09,2.2-0.37,4.72-0.03,6.86c-0.46,1.98,0.07,1.93,1.6-0.15
			c2.1-0.98,2.34-1.61,0.72-1.88c-0.55-0.49-1.51-0.6-2.12-1.07c-1.3-0.99-1.43-2.09-1.49-3.69c-0.02-0.59,0.4-2.13,0.12-2.64
			c-0.17-0.31-0.98-0.45-0.79,0.75c0.42,2.69,3.76,4.12,6.15,3.49C628.67,122.71,629.72,119.97,629.3,117.31L629.3,117.31z"/>
	</g>
</g>
<g>
	<g>
		<path d="M617.36,148.9c-4.31,19.48-5.64,39.55-3.48,59.4c1.02,9.38,3.49,18.44,4.78,27.74c0.51,3.71,0.7,7.74-1.03,11.17
			c-1.91,3.81-4.65,7.01-2.01,11.28c4.37,7.1,15.48,5.35,21.97,3.03c6.47-2.32,12.86-6.13,9.05-14c-1.55-3.2-4.27-5.2-6.88-7.48
			c-3.47-3.03-4.27-6.18-4.22-10.69c0.12-9.43,0.09-18.18-1.39-27.55c-1.84-11.66-3.04-23.15-1.17-34.91
			c1.38-8.67,3.82-18.45-6.31-22.47c-5.98-2.37-8.58,7.3-2.66,9.64c1.98,0.78-0.42,8.64-0.67,10.17c-0.68,4.21-1.14,8.46-1.3,12.71
			c-0.29,7.71,0.54,15.32,1.74,22.93c1.21,7.72,2.49,15.34,2.1,23.18c-0.32,6.41-1.01,13.24,2.4,19.03
			c1.39,2.36,3.38,4.14,5.44,5.88c0.84,0.71,1.98,2.14,2.95,2.58c-0.44-0.2,2.31,1.55,1.32,0.4c0.77-0.62,0.74-0.7-0.1-0.24
			c-0.46,0.22-0.94,0.41-1.42,0.59c-3.75,1.5-6.83,1.84-10.75,2.17c-0.3-0.09-0.59-0.18-0.89-0.27c-1.01-0.59-1.21-0.34-0.61,0.75
			c0.09,0.34,0.18,0.68,0.27,1.02c0.32-0.47,0.63-0.93,0.95-1.4c1.05-1.21,1.7-3.07,2.23-4.56c2.13-6.05,1.25-12.64,0.05-18.79
			c-1.55-7.93-3.26-15.73-4.05-23.8c-1.8-18.37-0.66-36.86,3.32-54.87C628.39,145.29,618.75,142.61,617.36,148.9L617.36,148.9z"/>
	</g>
</g>
<g>
	<g>
		<path d="M672.48,193.81c-1.78-5.43-7.2-8.63-12.88-7.27c-5.95,1.43-9.49,6.93-11.64,12.27c-5.26,13.1-3.89,30.02,3.05,42.25
			c5.87,10.35,19.08,20.33,31.71,17.62c15.01-3.22,11.56-26.07,9.02-36.52c-1.12-4.61-2.34-9.17-2.99-13.88
			c-0.54-3.97-0.92-7.98-2.9-11.56c-1.58-2.85-3.98-5.27-7.04-6.47c-3.56-1.4-7.48-0.16-10.93-1.59c-5.94-2.46-8.53,7.22-2.66,9.64
			c4.23,1.75,10.1-0.85,12.31,4.08c1.24,2.76,1.19,6.1,1.63,9.05c0.45,3.01,1.11,5.98,1.83,8.94c1.42,5.83,3.15,11.67,3.09,17.73
			c-0.02,2.8-0.26,6.28-1.71,8.78c-1.67,2.88-4.69,2.22-7.55,1.45c-10.82-2.91-17.16-13.11-19.15-23.57
			c-1.06-5.57-1.12-11.62,0.05-17.18c0.58-2.74,1.41-5.47,2.83-7.91c0.08-0.14,3.65-5.14,4.29-3.22
			C664.84,202.55,674.5,199.94,672.48,193.81L672.48,193.81z"/>
	</g>
</g>
<g>
	<g>
		<path d="M661.11,211.67c-4.65,8.12-6.31,19.46-1,27.74c5.24,8.17,16.66,7.77,21.02-0.91c4.28-8.5,1.26-20.17-4.04-27.51
			c-2.58-3.58-6.08-7.14-10.91-6.19c-4.12,0.8-6.15,4.89-6.88,8.62c-1.24,6.29,8.4,8.98,9.64,2.66c0.11-0.71,0.27-1.41,0.5-2.09
			c-2.06,0.64-2.23,1.53-0.51,2.69c0.48,1.49,1.83,2.88,2.45,4.38c1.45,3.52,2.54,8.56,1.09,12.23c-2.13,5.38-5.04-1.19-5.43-3.93
			c-0.63-4.51,0.47-8.74,2.7-12.65C672.95,211.13,664.31,206.08,661.11,211.67L661.11,211.67z"/>
	</g>
</g>
<g>
	<g>
		<path d="M716.93,177.81c-2.55-5.85-9.7-11.12-15.41-5.45c-2.32,2.3-2.63,5.44-2.89,8.53c-0.43,5.1-0.62,10.23-0.7,15.35
			c-0.16,9.92,0.24,19.85,1.2,29.73c0.89,9.1,2.84,18.06,0.48,27.07c-1.97,7.52,1.9,12.16,9.62,12.6c6.44,0.36,19.1,1.19,22.64-5.71
			c1.41-2.74,0.95-6-0.99-8.37c-2.07-2.54-7.45-2.97-8.5-5.55c-1.4-3.44-0.11-9.32-0.06-12.99c0.08-5.13,0.16-10.26,0.24-15.4
			c0.07-4.48-0.05-9,0.21-13.47c0.22-3.79,1.92-6.34,6.21-5.88c7.93,0.84,12.54,11.81,14.29,18.29c2.23,8.29,1.54,16.46,1.46,24.91
			c-0.06,6.94,1.11,14.32,6.5,19.21c5.68,5.16,13.58,5.58,20.8,4.43c6.55-1.05,15-3.64,15.5-11.55c0.46-7.27-6.62-10.18-12.76-9.32
			c-1.2,0.17-3.45,1.08-4.63,0.8c-1.54-0.36-0.84-1.11-0.96-3.23c-0.3-5.11-0.38-10.23-0.37-15.34c0.02-10.88,0.48-21.76,0.23-32.64
			c-0.2-8.59,0.18-19.09-6.15-25.8c-5.45-5.77-14.02-6.73-21.42-5.13c-9.94,2.15-19.46,10.6-30.04,8.38
			c-6.28-1.32-8.96,8.32-2.66,9.64c7.34,1.54,14.14-0.02,20.97-2.88c6.4-2.68,13.53-7.03,20.76-5.67c7.73,1.45,8.03,9.25,8.35,15.7
			c0.41,8.31,0.28,16.64,0.14,24.95c-0.14,8.32-0.31,16.64,0.02,24.95c0.21,5.48-0.34,12.76,5.29,15.82
			c2.37,1.29,5.14,1.36,7.74,1.05c1.22-0.15,2.4-0.5,3.62-0.66c0.43-0.06,1.29-0.04,1.69-0.2c0.33,0.03,0.65,0.06,0.97,0.1
			c-0.44-0.22-0.88-0.44-1.32-0.65c-3.08,0.35-6.06,1.98-9.3,2.21c-3.4,0.25-7.35,0.03-9.93-2.5c-4.47-4.37-2.98-12.73-2.78-18.28
			c0.25-6.75-0.22-13.59-1.87-20.16c-2.89-11.47-11.21-26.29-24.76-26.44c-5.4-0.06-10.98,2.63-13.72,7.39
			c-3.24,5.63-1.94,13.83-2.04,20.05c-0.13,8.34-0.27,16.68-0.38,25.02c-0.08,5.89,0.31,12.32,6.19,15.4c1.63,0.85,3.49,2,4.08,0.07
			c0.71-2.33-0.1-0.82-1.5-1.01c-1.18-0.16-2.71,0.25-3.91,0.32c-2.27,0.14-4.58,0.25-6.86,0.16c-0.6-0.02-1.63-0.25-2.24-0.16
			c1.03-0.14,0.56,2.75,1.53-0.63c2.27-7.95,1.07-16.06,0.14-24.11c-1.07-9.22-1.65-18.5-1.74-27.78c-0.05-4.8,0.04-9.6,0.26-14.4
			c0.1-2.14,0.61-4.59,0.39-6.71c-0.04-0.36,0.7-2.99-0.59-1.59c-0.87,0.95-0.34,1.06,0.33,2.59
			C710.86,188.74,719.48,183.66,716.93,177.81L716.93,177.81z"/>
	</g>
</g>
<g>
	<g>
		<path d="M453.39,117.41c-5.54-9.03-14.67-14.71-24.8-17.35c-10.76-2.81-23.76-3.7-34.78-1.95c-10.58,1.68-17.02,8.97-18.54,19.41
			c-1.56,10.75-1.43,23.08,1.14,33.64c2.32,9.53,7.97,18.93,16.89,23.57c4.54,2.36,9.52,3.14,14.54,3.68
			c5.68,0.61,12.15,0.5,17.01,3.96c8.3,5.91,11.58,19.48,13.05,28.96c1.74,11.26-0.85,21.87-10.63,28.53
			c-9.68,6.59-22.74,10.35-34.26,11.75c-5.93,0.72-12.1,0.7-17.93-0.7c-2.68-0.64-17.05-5.46-11.55-9.22
			c4.34-2.97,11.29,2.1,15.25,3.81c5.45,2.36,11.12,3.92,17.06,4.43c11.16,0.94,21.5-2.91,29.55-10.62
			c3.63-3.48,7.63-7.83,9.92-12.34c2.83-5.56,0.8-10.82-0.69-16.45c-2.69-10.15-5.36-20.18-14.96-25.96
			c-8.19-4.93-18.02-5.34-26.97-8.12c-10.14-3.15-15.64-10.86-18.44-20.8c-3.51-12.46-4.11-26.51-3.07-39.36
			c0.42-5.2,1.45-10.92,4.55-15.26c3.79-5.31,10.09-6.99,16.29-7.34c12.08-0.67,25.37,0.52,37.13,3.3c6.33,1.5,12.54,3.76,17.9,7.5
			c2.42,1.68,5.57,4.03,6.33,7.04c0.56,2.22-0.44,5.2-3.12,4.13c-5.98-2.38-8.57,7.29-2.66,9.64c10.74,4.28,18.42-8.7,14.91-17.78
			c-4.14-10.7-17.33-16.47-27.59-19.37c-11.78-3.33-24.48-4.14-36.67-4.5c-11.28-0.33-23.21,1.52-30.35,11.19
			c-6.56,8.88-7.09,20.75-7.02,31.38c0.08,12.21,0.89,25.42,5.31,36.95c3.94,10.28,10.82,18.16,21.25,22.06
			c9.3,3.48,21.35,2.89,29.26,9.46c4.6,3.82,6.02,9.87,7.45,15.39c0.68,2.64,1.64,5.31,2.18,7.98c0.98,4.84-2.16,7.89-5.23,11.29
			c-9.4,10.42-21.36,12.94-34.59,8.52c-10.03-3.35-21.63-12.19-31.15-2.35c-9.82,10.16,3.06,20.16,12.2,23.58
			c12.57,4.7,26.75,3.28,39.44-0.14c11.28-3.04,23.78-7.34,32.06-15.99c8.31-8.69,10.34-20.41,8.77-31.98
			c-1.45-10.71-4.92-23-11.83-31.56c-4.06-5.03-9.54-8.21-15.85-9.52c-6.64-1.37-13.9-0.67-20.3-3.12
			c-13.75-5.26-15.35-22.58-15.32-35.11c0.01-5.99-0.91-14.5,2.95-19.64c3.98-5.29,12.28-4.56,18.12-4.44
			c14.06,0.27,30.95,1.6,39.1,14.87C448.12,127.93,456.77,122.91,453.39,117.41L453.39,117.41z"/>
	</g>
</g>
<g>
	<g>
		<path d="M79.28,82.97c-8.56-5.03-19.1-8.31-29.13-7.31c-8.39,0.84-12.86,8.98-9.03,16.59c1.86,3.69,5.29,6.07,8.98,7.7
			c4.05,1.78,10.07,2.54,12.22,6.89c2.02,4.09,1.23,9.83,1.24,14.24c0.02,6.17,0.03,12.34,0.05,18.5
			c0.03,11.13,1.15,23.02-1.98,33.84c-2.92,10.11-8.58,19.33-12.07,29.27c-5.13,14.62-11.48,37.16,5.06,47.1
			c8.44,5.08,19.74,7.12,29.27,9.03c10.31,2.07,20.83,3.29,31.34,3.59c10.53,0.31,21.06-0.34,31.49-1.86
			c7.72-1.12,16.64-4.36,16.73-13.66c0.07-7.52-5.93-14.12-12.93-16.06c-9.98-2.76-20.61,1.8-30.6,2.52
			c-10.96,0.78-21.94-0.35-32.49-3.42c-3.47-1.01-9.88-2.2-12.5-4.95c-3.38-3.53-0.41-11.19,1.07-14.95
			c1.94-4.95,4.47-9.65,6.28-14.65c2.09-5.77,3.35-11.81,4.44-17.84c2.24-12.38,4-24.87,5.35-37.38
			c1.31-12.09,3.36-25.04,2.06-37.19c-1.08-10.12-6.01-18.9-15.71-22.77c-5.98-2.38-8.57,7.28-2.66,9.64
			c8.71,3.48,8.9,15.01,8.54,22.8c-0.43,9.51-1.3,19.02-2.34,28.48c-2.06,18.73-3.71,39.3-11.43,56.69
			c-3.21,7.22-7.02,14.55-6.93,22.67c0.09,8.35,4.46,12.82,11.84,15.83c16.71,6.81,35.16,8.78,52.97,6.08
			c6.74-1.02,19.33-6.02,24.03,1.42c4.84,7.66-12.2,7.63-16.14,7.98c-18.74,1.67-37.7,0.37-56.01-3.98
			c-4.46-1.06-8.88-2.29-13.24-3.7c-3.85-1.24-8.16-2.46-10.66-5.88c-4.12-5.63-2.48-14.22-0.94-20.44c2.27-9.16,5.6-18,9.59-26.54
			c3.91-8.38,7.2-16.44,8.15-25.73c1.11-10.81,0.44-21.9,0.41-32.75c-0.03-9.17,1.62-20.29-1.8-29.03c-1.53-3.9-4.29-6.93-7.95-8.97
			c-3.83-2.13-8.77-2.61-12.22-5.35c-1.91-1.51-3.18-3.59,0.19-3.86c2.41-0.19,4.99,0.08,7.36,0.46c5.38,0.87,10.37,2.84,15.05,5.58
			C79.8,94.87,84.83,86.23,79.28,82.97L79.28,82.97z"/>
	</g>
</g>
</svg>
