<?xml version="1.0" encoding="utf-8"?>
<!-- Generator: Adobe Illustrator 23.0.0, SVG Export Plug-In . SVG Version: 6.00 Build 0)  -->
<svg version="1.1" id="Layer_1" xmlns="http://www.w3.org/2000/svg" xmlns:xlink="http://www.w3.org/1999/xlink" x="0px" y="0px"
	 viewBox="0 0 100 100" style="enable-background:new 0 0 100 100;" xml:space="preserve">
<g>
	<g>
		<path d="M1.06,2.66c0.24,31.41,0.48,62.81,0.73,94.22c0.01,1.93,3.01,1.93,3,0C4.55,65.47,4.31,34.06,4.06,2.66
			C4.05,0.73,1.05,0.72,1.06,2.66L1.06,2.66z"/>
	</g>
</g>
<g>
	<g>
		<path d="M3.43,99.17c31.49,0.21,62.98,0.1,94.46-0.34c1.93-0.03,1.93-3.03,0-3c-31.49,0.44-62.97,0.55-94.46,0.34
			C1.5,96.16,1.49,99.16,3.43,99.17L3.43,99.17z"/>
	</g>
</g>
<g>
	<g>
		<path d="M99.39,96.99c-1.98-7.94-0.99-15.87-0.57-23.92c0.4-7.73,0.12-15.51,0.05-23.24c-0.15-15.97-0.29-31.95-0.44-47.92
			c-0.02-1.93-3.02-1.93-3,0c0.15,16.64,0.3,33.28,0.46,49.92c0.07,7.71,0.29,15.43-0.18,23.13c-0.47,7.71-1.1,15.25,0.79,22.83
			C96.96,99.66,99.86,98.86,99.39,96.99L99.39,96.99z"/>
	</g>
</g>
<g>
	<g>
		<path d="M2.66,3.4c31.32,0.62,62.63,1.21,93.95,0.47c1.93-0.05,1.93-3.05,0-3C65.29,1.61,33.99,1.02,2.66,0.4
			C0.73,0.36,0.73,3.36,2.66,3.4L2.66,3.4z"/>
	</g>
</g>
<g>
	<g>
		<path d="M14.04,29.5c1.88,15.7-4.21,30.84-4.03,46.51c0.02,1.93,3.02,1.93,3,0c-0.18-15.67,5.91-30.79,4.03-46.51
			C16.82,27.61,13.81,27.59,14.04,29.5L14.04,29.5z"/>
	</g>
</g>
<g>
	<g>
		<path d="M14.7,31.43c6.04-0.59,13.24,0,12.53,8.23c-0.36,4.17-2.96,7.61-7.64,7.13c-1.51-0.15-2.52-0.78-4.08-0.7
			c-1.19,0.07-1.8,1.21-1.3,2.26c2.4,5.01,4.79,10.02,7.19,15.04c1.65,3.44,2.86,7.01,6.02,9.3c1.57,1.13,3.07-1.47,1.51-2.59
			c-3.26-2.36-4.98-8.3-6.64-11.76c-1.83-3.83-3.66-7.67-5.5-11.5c-0.43,0.75-0.86,1.5-1.3,2.26c4.21-0.23,6.86,1.86,10.72-1.11
			c2.74-2.1,4.01-5.56,4.1-8.92c0.28-9.42-7.87-11.38-15.63-10.63C12.8,28.62,12.78,31.62,14.7,31.43L14.7,31.43z"/>
	</g>
</g>
<g>
	<g>
		<path d="M36.43,45.75c0.26,0.79,0.44,1.58,0.49,2.4c0.05,0.81,0.65,1.5,1.5,1.5c0.77,0,1.55-0.69,1.5-1.5
			c-0.07-1.09-0.25-2.16-0.59-3.2c-0.25-0.77-1.04-1.27-1.85-1.05C36.73,44.11,36.17,44.97,36.43,45.75L36.43,45.75z"/>
	</g>
</g>
<g>
	<g>
		<path d="M36.98,54.53c0.22,5.19,0.27,10.38,0.16,15.58c-0.04,1.93,2.96,1.93,3,0c0.12-5.2,0.06-10.39-0.16-15.58
			C39.9,52.6,36.9,52.59,36.98,54.53L36.98,54.53z"/>
	</g>
</g>
<g>
	<g>
		<path d="M55.25,48.45c-2.4-0.01-6.8-1.03-8.82,0.82c-1.66,1.52-1.79,5.63-1,7.56c2.7,6.61,10.24-3.21,12.01-5.37
			c-0.85-0.35-1.71-0.71-2.56-1.06c0.74,6.1,1.6,12.68-0.51,18.61c-0.38,0.84-0.75,1.68-1.13,2.52c-3,0.27-3.72-0.61-2.16-2.62
			c0.95-2.29,1.91-2.36,4.12-2.96C59.08,64.9,63,64.58,67,64.71c1.93,0.07,1.93-2.93,0-3c-3.67-0.12-7.3,0.11-10.88,0.92
			c-2.33,0.53-6.44,1.13-8.05,3.03c-2.08,2.46-0.99,7.65,1.77,9.3c3.69,2.22,5.95-1.35,7.14-4.43c2.49-6.42,1.72-13.47,0.91-20.14
			c-0.14-1.13-1.64-2.18-2.56-1.06c-1.26,1.53-4.36,6.27-6.27,5.31c-1.26-0.17-1.4-0.78-0.41-1.84c0.07-1.4,0.77-1.86,2.09-1.39
			c1.3-0.35,3.2,0.02,4.53,0.03C57.18,51.46,57.19,48.46,55.25,48.45L55.25,48.45z"/>
	</g>
</g>
<g>
	<g>
		<path d="M68.82,37.17c0,10.99,0.01,21.98,0.01,32.96c0,1.65,2.58,2.09,2.95,0.4c0.35-1.58,1.32-6.87,3.04-6.45
			c1.77,0.43,2.12,5.99,2.4,7.67c0.32,1.9,3.21,1.09,2.89-0.8c-0.48-2.84-0.83-11.19-5.38-11.04c-3.87,0.12-5.26,7.15-5.85,9.82
			c0.98,0.13,1.96,0.27,2.95,0.4c0-10.99-0.01-21.98-0.01-32.96C71.81,35.24,68.81,35.24,68.82,37.17L68.82,37.17z"/>
	</g>
</g>
<g>
	<g>
		<path d="M80.53,52.7c3.41,0.17,6.76-0.12,10.09-0.85c1.89-0.41,1.09-3.3-0.8-2.89c-3.08,0.67-6.15,0.9-9.29,0.74
			C78.6,49.61,78.61,52.61,80.53,52.7L80.53,52.7z"/>
	</g>
</g>
<g>
	<g>
		<path d="M83.6,46.87c0.23,4.5,0.46,9,0.69,13.5c0.16,3.07-0.54,7.72,0.66,10.5c1.5,3.47,5.75,2.25,8.05,0.23
			c1.45-1.28-0.68-3.39-2.12-2.12c-3.69,3.24-3.36-4.1-3.39-4.75c-0.1-1.93-0.2-3.86-0.3-5.78c-0.2-3.86-0.4-7.71-0.59-11.57
			C86.5,44.95,83.5,44.94,83.6,46.87L83.6,46.87z"/>
	</g>
</g>
</svg>
