<?xml version="1.0" encoding="utf-8"?>
<!-- Generator: Adobe Illustrator 23.0.0, SVG Export Plug-In . SVG Version: 6.00 Build 0)  -->
<svg version="1.1" id="Layer_1" xmlns="http://www.w3.org/2000/svg" xmlns:xlink="http://www.w3.org/1999/xlink" x="0px" y="0px"
	 viewBox="0 0 100 100" style="enable-background:new 0 0 100 100;" xml:space="preserve">
<g>
	<g>
		<path d="M1.06,2.66c0.24,31.41,0.48,62.81,0.73,94.22c0.01,1.93,3.01,1.93,3,0C4.55,65.47,4.31,34.06,4.06,2.66
			C4.05,0.73,1.05,0.72,1.06,2.66L1.06,2.66z"/>
	</g>
</g>
<g>
	<g>
		<path d="M3.43,99.17c31.49,0.21,62.98,0.1,94.46-0.34c1.93-0.03,1.93-3.03,0-3c-31.49,0.44-62.97,0.55-94.46,0.34
			C1.5,96.16,1.49,99.16,3.43,99.17L3.43,99.17z"/>
	</g>
</g>
<g>
	<g>
		<path d="M99.39,96.99c-1.98-7.94-0.99-15.87-0.57-23.92c0.4-7.73,0.12-15.51,0.05-23.24c-0.15-15.97-0.29-31.95-0.44-47.92
			c-0.02-1.93-3.02-1.93-3,0c0.15,16.64,0.3,33.28,0.46,49.92c0.07,7.71,0.29,15.43-0.18,23.13c-0.47,7.71-1.1,15.25,0.79,22.83
			C96.96,99.66,99.86,98.86,99.39,96.99L99.39,96.99z"/>
	</g>
</g>
<g>
	<g>
		<path d="M2.66,3.4c31.32,0.62,62.63,1.21,93.95,0.47c1.93-0.05,1.93-3.05,0-3C65.29,1.61,33.99,1.02,2.66,0.4
			C0.73,0.36,0.73,3.36,2.66,3.4L2.66,3.4z"/>
	</g>
</g>
<g>
	<g>
		<path d="M17.21,40.67c6.64,0,13.28,0,19.91,0c1.93,0,1.93-3,0-3c-6.64,0-13.28,0-19.91,0C15.28,37.67,15.28,40.67,17.21,40.67
			L17.21,40.67z"/>
	</g>
</g>
<g>
	<g>
		<path d="M23.57,40.69c-1.05,8.66-1.7,17.33-1.95,26.05c-0.06,1.93,2.94,1.93,3,0c0.25-8.72,0.9-17.39,1.95-26.05
			C26.8,38.78,23.8,38.8,23.57,40.69L23.57,40.69z"/>
	</g>
</g>
<g>
	<g>
		<path d="M47.05,55.64c-1.18-4.14-7.98-3.62-10.25-0.76c-3.08,3.87-0.45,9.02,3.43,11.06c3.86,2.03,10.77,2.97,13.81-0.97
			c3.85-4.99-2.16-8.3-5.68-10.77c-1.58-1.11-3.08,1.49-1.51,2.59c0.91,0.64,1.93,1.25,2.78,1.96c0.9,0.75,2.51,2.2,2.54,3.45
			c0.07,2.96-5.49,2.45-7.13,2.16c-2.62-0.46-5.5-1.57-6.3-4.36c-0.38-1.32-0.25-3,1.06-3.87c0.77-0.51,4.02-0.87,4.35,0.32
			C44.69,58.3,47.58,57.51,47.05,55.64L47.05,55.64z"/>
	</g>
</g>
<g>
	<g>
		<path d="M66.57,38.15c-0.63,8.21-3.97,16.4-5.21,24.6c-0.29,1.89,2.61,2.7,2.89,0.8c1.28-8.48,4.67-16.91,5.32-25.4
			C69.72,36.22,66.72,36.23,66.57,38.15L66.57,38.15z"/>
	</g>
</g>
<g>
	<g>
		<path d="M69.24,42.7c1.2-2.28,2.85-4.15,5.09-5.45c1.18-0.68,2.57-1.48,3.92-0.99c1.54,0.56,1.48,2.03,1.62,3.56
			c0.28,3.05,1.25,7.98-2.51,9.06c-2.59,0.74-7.38,0.13-7.4-3.31c-0.01-1.93-3.01-1.93-3,0c0.03,4.88,4.72,6.62,8.93,6.42
			c5.96-0.29,7.37-3.94,7.14-9.52c-0.15-3.5-0.25-9.72-5.18-9.56c-4.75,0.16-9.14,4.34-11.21,8.27
			C65.75,42.89,68.33,44.41,69.24,42.7L69.24,42.7z"/>
	</g>
</g>
</svg>
